<svg width="20.000000" height="15.000000" viewBox="0 0 20 15" fill="none" xmlns="http://www.w3.org/2000/svg" xmlns:xlink="http://www.w3.org/1999/xlink">
	<desc>
			Created with Pixso.
	</desc>
	<defs/>
	<path id="Union" d="M16.8613 -0.791016L16.8613 -0.791016Q17.1072 -0.737305 17.3433 -0.637695Q17.5789 -0.538086 17.7888 -0.398926Q18.0183 -0.24707 18.217 -0.0483398Q18.4158 0.149902 18.5676 0.379883Q18.7063 0.589844 18.8062 0.825195Q18.9058 1.06104 18.9597 1.30713Q19.0151 1.56152 19.0217 1.82666C19.0261 1.87207 19.0264 1.91748 19.0225 1.96289L19.0225 11.896Q19.0225 12.1973 18.9597 12.4849Q18.9058 12.731 18.8062 12.9668Q18.7063 13.2021 18.5676 13.4121Q18.4158 13.6421 18.217 13.8403Q18.0183 14.0391 17.7888 14.1909L17.7886 14.1909Q17.5789 14.3301 17.3433 14.4297Q17.1072 14.5293 16.8613 14.583Q16.5737 14.646 16.2725 14.646L2.27246 14.646Q1.97119 14.646 1.68359 14.583Q1.43774 14.5293 1.2019 14.4297Q0.966064 14.3301 0.756348 14.1909L0.756348 14.1909Q0.526611 14.0391 0.327881 13.8403Q0.129395 13.6421 -0.0224609 13.4121L-0.0224609 13.4121Q-0.161377 13.2021 -0.260986 12.9668Q-0.36084 12.731 -0.414551 12.4849Q-0.477539 12.1973 -0.477539 11.896L-0.477539 1.96289C-0.481445 1.91748 -0.481201 1.87207 -0.476562 1.82666Q-0.470215 1.56152 -0.414551 1.30713L-0.414551 1.30713L-0.414551 1.30713Q-0.36084 1.06104 -0.260986 0.825195Q-0.161377 0.589355 -0.0224609 0.379883L-0.0224609 0.379883Q0.129395 0.149902 0.327881 -0.0483398Q0.526611 -0.24707 0.756348 -0.398926Q0.966064 -0.538086 1.2019 -0.637695Q1.43774 -0.737305 1.68359 -0.791016Q1.97119 -0.854004 2.27246 -0.854004L16.2725 -0.854004Q16.5737 -0.854004 16.8613 -0.791016ZM1.02246 3.29736L8.85645 8.52002Q9.04541 8.646 9.27246 8.646Q9.49951 8.646 9.68848 8.52002L17.5225 3.29736L17.5225 11.896Q17.5225 12.0454 17.489 12.1865L17.489 12.1865Q17.4651 12.2866 17.4246 12.3823Q17.3818 12.4834 17.3232 12.5737L17.3232 12.5742Q17.2517 12.6846 17.1565 12.7798Q17.061 12.875 16.9504 12.9468Q16.8599 13.0054 16.7588 13.0479Q16.6631 13.0889 16.563 13.1123L16.563 13.1123Q16.4219 13.146 16.2725 13.146L2.27246 13.146Q2.12329 13.146 1.98193 13.1123L1.98193 13.1123Q1.88208 13.0889 1.78613 13.0479Q1.68506 13.0054 1.59448 12.9468Q1.48389 12.875 1.38867 12.7798Q1.29346 12.6846 1.22192 12.5742L1.22192 12.5742Q1.16309 12.4834 1.12036 12.3823Q1.07983 12.2866 1.05615 12.1865Q1.02246 12.0454 1.02246 11.896L1.02246 3.29736ZM17.4685 1.53076Q17.45 1.46924 17.4246 1.40967Q17.3818 1.30859 17.3232 1.21777L17.3232 1.21777Q17.2517 1.10742 17.1565 1.01221Q17.061 0.916992 16.9504 0.845215Q16.8599 0.786621 16.7588 0.744141Q16.6631 0.703613 16.5632 0.679688L16.563 0.679688Q16.4219 0.645996 16.2725 0.645996L2.27246 0.645996Q2.12329 0.645996 1.98193 0.679688L1.98193 0.679688Q1.88208 0.703125 1.78613 0.744141Q1.68506 0.786621 1.59448 0.845215L1.59448 0.845215Q1.48389 0.916992 1.38867 1.01221Q1.29346 1.10742 1.22192 1.21777L1.22192 1.21777Q1.16309 1.30859 1.12036 1.40967Q1.09521 1.46924 1.07642 1.53076L9.27246 6.99463L17.4685 1.53076Z" clip-rule="evenodd" fill="#141718" fill-opacity="1.000000" fill-rule="evenodd"/>
</svg>
